<svg xmlns="http://www.w3.org/2000/svg" id="Layer_1" viewBox="0 0 188.07 41.12" width="100%" class="nav-logo_icon colored"><path class="st1" d="M32.29,2.55c-3.4-3.4-8.92-3.4-12.32,0-1.7,1.7-2.55,3.93-2.55,6.16v.11c.03-2.27-.82-4.54-2.55-6.27C11.47-.85,5.95-.85,2.55,2.55-.85,5.95-.85,11.47,2.55,14.87c1.7,1.7,3.93,2.55,6.15,2.55-2.23,0-4.45.85-6.15,2.55-3.4,3.4-3.4,8.92,0,12.32,3.4,3.4,8.92,3.4,12.32,0,1.73-1.73,2.58-4.01,2.55-6.27v-8.6h8.59c2.27.03,4.54-.82,6.28-2.55,3.4-3.4,3.4-8.92,0-12.32Z" style="fill: rgb(75, 164, 218); opacity: 1;"></path><g><g><path class="st0" d="M53.23,15.11c-2.58,0-4.94.97-6.71,2.57v-7.89c0-.46-.38-.84-.84-.84h-1.58c-.46,0-.84.38-.84.84v15.2c0,5.46,4.46,9.88,9.97,9.88s9.97-4.42,9.97-9.88-4.46-9.88-9.97-9.88ZM53.29,31.68c-3.67,0-6.65-2.99-6.65-6.68s2.98-6.68,6.65-6.68,6.65,2.99,6.65,6.68-2.98,6.68-6.65,6.68Z" style="fill: rgb(29, 23, 78);"></path><g><path class="st0" d="M184.65,17.84h-.38v-1.99h-.68v-.33h1.74v.33h-.68v1.99Z" style="fill: rgb(29, 23, 78);"></path><path class="st0" d="M186.69,17.84l-.67-1.94h-.01c.02.29.03.56.03.81v1.13h-.34v-2.32h.53l.64,1.85h0l.66-1.85h.54v2.32h-.36v-1.15c0-.12,0-.27,0-.45,0-.19.01-.3.02-.34h-.01l-.7,1.93h-.33Z" style="fill: rgb(29, 23, 78);"></path></g><path class="st0" d="M181.07,15.9c-.16-.24-.42-.38-.7-.38h-1.8c-.34,0-.64.2-.77.51l-5.49,12.9-5.14-12.88c-.13-.32-.44-.53-.78-.53h-1.72c-.28,0-.54.14-.7.37-.16.23-.19.52-.09.78l6.57,16.55-2.95,6.72c-.11.26-.09.56.07.8.16.24.42.38.7.38h1.77c.34,0,.64-.2.77-.51l10.34-23.92c.11-.26.09-.56-.07-.8Z" style="fill: rgb(29, 23, 78);"></path><path class="st0" d="M161.81,15.52h-3.41v-5.72c0-.46-.38-.84-.84-.84h-1.58c-.46,0-.84.38-.84.84v5.72h-2.82c-.46,0-.84.38-.84.84v1.51c0,.46.38.84.84.84h2.82v14.91c0,.46.38.84.84.84h1.58c.46,0,.84-.38.84-.84v-14.91h3.41c.46,0,.84-.38.84-.84v-1.51c0-.46-.38-.84-.84-.84Z" style="fill: rgb(29, 23, 78);"></path><path class="st0" d="M143.09,15.89c-.16-.23-.42-.37-.7-.37h-1.76c-.34,0-.65.21-.78.52l-5.37,13.08-5.45-13.09c-.13-.31-.44-.52-.78-.52h-1.66c-.28,0-.54.14-.7.37-.16.23-.19.53-.08.79l7.01,17.05.09.22c.13.32.44.52.78.52h1.6c.34,0,.65-.21.78-.52l7.1-17.27c.11-.26.08-.56-.08-.79Z" style="fill: rgb(29, 23, 78);"></path><path class="st0" d="M101.57,17.04c-1.55-1.28-3.54-1.93-5.91-1.93h0c-.76-.03-1.53.05-2.31.21-.77.17-1.51.43-2.2.77-.37.18-.72.4-1.06.63v-.37c0-.46-.38-.84-.84-.84h-1.58c-.46,0-.84.38-.84.84v17.27c0,.46.38.84.84.84h1.58c.46,0,.84-.38.84-.84v-9.88c0-1.74.48-3.08,1.43-3.98.97-.93,2.35-1.42,4.1-1.45.74,0,1.47.1,2.18.3.63.18,1.21.5,1.71.96.48.43.87,1.04,1.17,1.81.31.81.47,1.87.47,3.15v9.1c0,.46.38.84.84.84h1.58c.46,0,.84-.38.84-.84v-9.1c0-3.37-.95-5.89-2.84-7.48Z" style="fill: rgb(29, 23, 78);"></path><path class="st0" d="M83.81,20.65c-.56-1.17-1.3-2.18-2.22-3-.91-.81-1.95-1.45-3.11-1.88-1.15-.43-2.37-.66-3.61-.66-1.38,0-2.69.25-3.9.74-1.22.5-2.28,1.2-3.17,2.09s-1.59,1.95-2.1,3.15c-.5,1.19-.76,2.51-.77,3.9v.04c0,1.37.26,2.67.75,3.86.5,1.2,1.19,2.26,2.07,3.15.88.89,1.94,1.6,3.15,2.09,1.2.49,2.54.75,3.96.75.93,0,1.86-.12,2.76-.35.91-.24,1.78-.6,2.58-1.09.8-.49,1.53-1.11,2.19-1.85.48-.54.91-1.17,1.28-1.85.14-.26.13-.58-.02-.83-.15-.25-.43-.41-.72-.41h-1.83c-.28,0-.55.14-.7.38-.51.77-1.15,1.39-1.91,1.85-1.06.63-2.26.96-3.58.96-.68,0-1.43-.13-2.22-.39-.77-.25-1.5-.66-2.15-1.2-.64-.53-1.19-1.22-1.63-2.05-.27-.51-.45-1.1-.56-1.76h15.53c.44,0,.81-.34.84-.79l.05-.84s0-.06,0-.1c-.07-1.42-.39-2.74-.94-3.91ZM74.94,18.31c.79-.04,1.57.1,2.33.4.78.31,1.49.75,2.1,1.3.61.56,1.12,1.22,1.51,1.98.18.35.32.71.43,1.09h-12.85c.1-.4.25-.79.43-1.15.37-.74.86-1.38,1.45-1.91.6-.54,1.3-.96,2.08-1.26.78-.3,1.62-.45,2.5-.45.01,0,.02,0,.04,0Z" style="fill: rgb(29, 23, 78);"></path><path class="st0" d="M125.37,20.65c-.56-1.17-1.3-2.18-2.22-3-.91-.81-1.95-1.45-3.11-1.88-1.15-.43-2.37-.66-3.61-.66-1.38,0-2.69.25-3.9.74-1.22.5-2.28,1.2-3.17,2.09s-1.59,1.95-2.1,3.15c-.5,1.19-.76,2.51-.77,3.9v.04c0,1.37.26,2.67.75,3.86.5,1.2,1.19,2.26,2.07,3.15.88.89,1.94,1.6,3.15,2.09,1.2.49,2.54.75,3.96.75.93,0,1.86-.12,2.76-.35.91-.24,1.78-.6,2.58-1.09.8-.49,1.53-1.11,2.19-1.85.48-.54.91-1.17,1.28-1.85.14-.26.13-.58-.02-.83-.15-.25-.43-.41-.72-.41h-1.83c-.28,0-.55.14-.7.38-.51.77-1.15,1.39-1.91,1.85-1.06.63-2.26.96-3.58.96-.68,0-1.43-.13-2.22-.39-.77-.25-1.5-.66-2.15-1.2-.64-.53-1.19-1.22-1.63-2.05-.27-.51-.45-1.1-.56-1.76h15.53c.44,0,.81-.34.84-.79l.05-.84s0-.06,0-.1c-.07-1.42-.39-2.74-.94-3.91ZM116.5,18.31c.79-.04,1.57.1,2.33.4.78.31,1.49.75,2.1,1.3.61.56,1.12,1.22,1.51,1.98.18.35.32.71.43,1.09h-12.85c.1-.4.25-.79.43-1.15.37-.74.86-1.38,1.45-1.91.6-.54,1.3-.96,2.08-1.26.78-.3,1.62-.45,2.5-.45.01,0,.02,0,.04,0Z" style="fill: rgb(29, 23, 78);"></path><g><rect class="st0" x="145.45" y="15.52" width="3.26" height="18.95" rx=".84" ry=".84" style="fill: rgb(29, 23, 78);"></rect><circle class="st0" cx="147.08" cy="11" r="2.04" style="fill: rgb(29, 23, 78);"></circle></g></g><g><path class="st0" d="M24.91,34.83c-2.64,0-5.12-1.03-6.99-2.9-1.9-1.9-2.93-4.43-2.89-7.12V8.52c0-1.39,1.12-2.52,2.51-2.52s2.51,1.13,2.51,2.52v16.33c-.02,1.35.49,2.6,1.42,3.54.92.92,2.14,1.43,3.44,1.43s2.52-.51,3.44-1.43c.92-.92,1.42-2.14,1.42-3.44s-.5-2.52-1.42-3.44c-.92-.92-2.14-1.42-3.44-1.42-1.39,0-2.51-1.12-2.51-2.51s1.12-2.51,2.51-2.51c2.64,0,5.13,1.03,6.99,2.89,1.87,1.87,2.89,4.35,2.89,6.99s-1.03,5.12-2.89,6.99c-1.87,1.87-4.35,2.9-6.99,2.9Z" style="fill: rgb(29, 23, 78);"></path><path class="st0" d="M12.89,17.41c0,1.39-1.12,2.51-2.51,2.51s-2.51-1.12-2.51-2.51,1.13-2.51,2.51-2.51,2.51,1.13,2.51,2.51Z" style="fill: rgb(29, 23, 78);"></path></g></g>
<path class="st1" d="M32.29,2.55c-3.4-3.4-8.92-3.4-12.32,0-1.7,1.7-2.55,3.93-2.55,6.16v.11c.03-2.27-.82-4.54-2.55-6.27C11.47-.85,5.95-.85,2.55,2.55-.85,5.95-.85,11.47,2.55,14.87c1.7,1.7,3.93,2.55,6.15,2.55-2.23,0-4.45.85-6.15,2.55-3.4,3.4-3.4,8.92,0,12.32,3.4,3.4,8.92,3.4,12.32,0,1.73-1.73,2.58-4.01,2.55-6.27v-8.6h8.59c2.27.03,4.54-.82,6.28-2.55,3.4-3.4,3.4-8.92,0-12.32Z" style="fill: rgb(75, 164, 218); opacity: 1;"></path>
<g><g><path class="st0" d="M53.23,15.11c-2.58,0-4.94.97-6.71,2.57v-7.89c0-.46-.38-.84-.84-.84h-1.58c-.46,0-.84.38-.84.84v15.2c0,5.46,4.46,9.88,9.97,9.88s9.97-4.42,9.97-9.88-4.46-9.88-9.97-9.88ZM53.29,31.68c-3.67,0-6.65-2.99-6.65-6.68s2.98-6.68,6.65-6.68,6.65,2.99,6.65,6.68-2.98,6.68-6.65,6.68Z" style="fill: rgb(29, 23, 78);"></path><g><path class="st0" d="M184.65,17.84h-.38v-1.99h-.68v-.33h1.74v.33h-.68v1.99Z" style="fill: rgb(29, 23, 78);"></path><path class="st0" d="M186.69,17.84l-.67-1.94h-.01c.02.29.03.56.03.81v1.13h-.34v-2.32h.53l.64,1.85h0l.66-1.85h.54v2.32h-.36v-1.15c0-.12,0-.27,0-.45,0-.19.01-.3.02-.34h-.01l-.7,1.93h-.33Z" style="fill: rgb(29, 23, 78);"></path></g><path class="st0" d="M181.07,15.9c-.16-.24-.42-.38-.7-.38h-1.8c-.34,0-.64.2-.77.51l-5.49,12.9-5.14-12.88c-.13-.32-.44-.53-.78-.53h-1.72c-.28,0-.54.14-.7.37-.16.23-.19.52-.09.78l6.57,16.55-2.95,6.72c-.11.26-.09.56.07.8.16.24.42.38.7.38h1.77c.34,0,.64-.2.77-.51l10.34-23.92c.11-.26.09-.56-.07-.8Z" style="fill: rgb(29, 23, 78);"></path><path class="st0" d="M161.81,15.52h-3.41v-5.72c0-.46-.38-.84-.84-.84h-1.58c-.46,0-.84.38-.84.84v5.72h-2.82c-.46,0-.84.38-.84.84v1.51c0,.46.38.84.84.84h2.82v14.91c0,.46.38.84.84.84h1.58c.46,0,.84-.38.84-.84v-14.91h3.41c.46,0,.84-.38.84-.84v-1.51c0-.46-.38-.84-.84-.84Z" style="fill: rgb(29, 23, 78);"></path><path class="st0" d="M143.09,15.89c-.16-.23-.42-.37-.7-.37h-1.76c-.34,0-.65.21-.78.52l-5.37,13.08-5.45-13.09c-.13-.31-.44-.52-.78-.52h-1.66c-.28,0-.54.14-.7.37-.16.23-.19.53-.08.79l7.01,17.05.09.22c.13.32.44.52.78.52h1.6c.34,0,.65-.21.78-.52l7.1-17.27c.11-.26.08-.56-.08-.79Z" style="fill: rgb(29, 23, 78);"></path><path class="st0" d="M101.57,17.04c-1.55-1.28-3.54-1.93-5.91-1.93h0c-.76-.03-1.53.05-2.31.21-.77.17-1.51.43-2.2.77-.37.18-.72.4-1.06.63v-.37c0-.46-.38-.84-.84-.84h-1.58c-.46,0-.84.38-.84.84v17.27c0,.46.38.84.84.84h1.58c.46,0,.84-.38.84-.84v-9.88c0-1.74.48-3.08,1.43-3.98.97-.93,2.35-1.42,4.1-1.45.74,0,1.47.1,2.18.3.63.18,1.21.5,1.71.96.48.43.87,1.04,1.17,1.81.31.81.47,1.87.47,3.15v9.1c0,.46.38.84.84.84h1.58c.46,0,.84-.38.84-.84v-9.1c0-3.37-.95-5.89-2.84-7.48Z" style="fill: rgb(29, 23, 78);"></path><path class="st0" d="M83.81,20.65c-.56-1.17-1.3-2.18-2.22-3-.91-.81-1.95-1.45-3.11-1.88-1.15-.43-2.37-.66-3.61-.66-1.38,0-2.69.25-3.9.74-1.22.5-2.28,1.2-3.17,2.09s-1.59,1.95-2.1,3.15c-.5,1.19-.76,2.51-.77,3.9v.04c0,1.37.26,2.67.75,3.86.5,1.2,1.19,2.26,2.07,3.15.88.89,1.94,1.6,3.15,2.09,1.2.49,2.54.75,3.96.75.93,0,1.86-.12,2.76-.35.91-.24,1.78-.6,2.58-1.09.8-.49,1.53-1.11,2.19-1.85.48-.54.91-1.17,1.28-1.85.14-.26.13-.58-.02-.83-.15-.25-.43-.41-.72-.41h-1.83c-.28,0-.55.14-.7.38-.51.77-1.15,1.39-1.91,1.85-1.06.63-2.26.96-3.58.96-.68,0-1.43-.13-2.22-.39-.77-.25-1.5-.66-2.15-1.2-.64-.53-1.19-1.22-1.63-2.05-.27-.51-.45-1.1-.56-1.76h15.53c.44,0,.81-.34.84-.79l.05-.84s0-.06,0-.1c-.07-1.42-.39-2.74-.94-3.91ZM74.94,18.31c.79-.04,1.57.1,2.33.4.78.31,1.49.75,2.1,1.3.61.56,1.12,1.22,1.51,1.98.18.35.32.71.43,1.09h-12.85c.1-.4.25-.79.43-1.15.37-.74.86-1.38,1.45-1.91.6-.54,1.3-.96,2.08-1.26.78-.3,1.62-.45,2.5-.45.01,0,.02,0,.04,0Z" style="fill: rgb(29, 23, 78);"></path><path class="st0" d="M125.37,20.65c-.56-1.17-1.3-2.18-2.22-3-.91-.81-1.95-1.45-3.11-1.88-1.15-.43-2.37-.66-3.61-.66-1.38,0-2.69.25-3.9.74-1.22.5-2.28,1.2-3.17,2.09s-1.59,1.95-2.1,3.15c-.5,1.19-.76,2.51-.77,3.9v.04c0,1.37.26,2.67.75,3.86.5,1.2,1.19,2.26,2.07,3.15.88.89,1.94,1.6,3.15,2.09,1.2.49,2.54.75,3.96.75.93,0,1.86-.12,2.76-.35.91-.24,1.78-.6,2.58-1.09.8-.49,1.53-1.11,2.19-1.85.48-.54.91-1.17,1.28-1.85.14-.26.13-.58-.02-.83-.15-.25-.43-.41-.72-.41h-1.83c-.28,0-.55.14-.7.38-.51.77-1.15,1.39-1.91,1.85-1.06.63-2.26.96-3.58.96-.68,0-1.43-.13-2.22-.39-.77-.25-1.5-.66-2.15-1.2-.64-.53-1.19-1.22-1.63-2.05-.27-.51-.45-1.1-.56-1.76h15.53c.44,0,.81-.34.84-.79l.05-.84s0-.06,0-.1c-.07-1.42-.39-2.74-.94-3.91ZM116.5,18.31c.79-.04,1.57.1,2.33.4.78.31,1.49.75,2.1,1.3.61.56,1.12,1.22,1.51,1.98.18.35.32.71.43,1.09h-12.85c.1-.4.25-.79.43-1.15.37-.74.86-1.38,1.45-1.91.6-.54,1.3-.96,2.08-1.26.78-.3,1.62-.45,2.5-.45.01,0,.02,0,.04,0Z" style="fill: rgb(29, 23, 78);"></path><g><rect class="st0" x="145.45" y="15.52" width="3.26" height="18.95" rx=".84" ry=".84" style="fill: rgb(29, 23, 78);"></rect><circle class="st0" cx="147.08" cy="11" r="2.04" style="fill: rgb(29, 23, 78);"></circle></g></g><g><path class="st0" d="M24.91,34.83c-2.64,0-5.12-1.03-6.99-2.9-1.9-1.9-2.93-4.43-2.89-7.12V8.52c0-1.39,1.12-2.52,2.51-2.52s2.51,1.13,2.51,2.52v16.33c-.02,1.35.49,2.6,1.42,3.54.92.92,2.14,1.43,3.44,1.43s2.52-.51,3.44-1.43c.92-.92,1.42-2.14,1.42-3.44s-.5-2.52-1.42-3.44c-.92-.92-2.14-1.42-3.44-1.42-1.39,0-2.51-1.12-2.51-2.51s1.12-2.51,2.51-2.51c2.64,0,5.13,1.03,6.99,2.89,1.87,1.87,2.89,4.35,2.89,6.99s-1.03,5.12-2.89,6.99c-1.87,1.87-4.35,2.9-6.99,2.9Z" style="fill: rgb(29, 23, 78);"></path><path class="st0" d="M12.89,17.41c0,1.39-1.12,2.51-2.51,2.51s-2.51-1.12-2.51-2.51,1.13-2.51,2.51-2.51,2.51,1.13,2.51,2.51Z" style="fill: rgb(29, 23, 78);"></path></g></g>
<g><path class="st0" d="M53.23,15.11c-2.58,0-4.94.97-6.71,2.57v-7.89c0-.46-.38-.84-.84-.84h-1.58c-.46,0-.84.38-.84.84v15.2c0,5.46,4.46,9.88,9.97,9.88s9.97-4.42,9.97-9.88-4.46-9.88-9.97-9.88ZM53.29,31.68c-3.67,0-6.65-2.99-6.65-6.68s2.98-6.68,6.65-6.68,6.65,2.99,6.65,6.68-2.98,6.68-6.65,6.68Z" style="fill: rgb(29, 23, 78);"></path><g><path class="st0" d="M184.65,17.84h-.38v-1.99h-.68v-.33h1.74v.33h-.68v1.99Z" style="fill: rgb(29, 23, 78);"></path><path class="st0" d="M186.69,17.84l-.67-1.94h-.01c.02.29.03.56.03.81v1.13h-.34v-2.32h.53l.64,1.85h0l.66-1.85h.54v2.32h-.36v-1.15c0-.12,0-.27,0-.45,0-.19.01-.3.02-.34h-.01l-.7,1.93h-.33Z" style="fill: rgb(29, 23, 78);"></path></g><path class="st0" d="M181.07,15.9c-.16-.24-.42-.38-.7-.38h-1.8c-.34,0-.64.2-.77.51l-5.49,12.9-5.14-12.88c-.13-.32-.44-.53-.78-.53h-1.72c-.28,0-.54.14-.7.37-.16.23-.19.52-.09.78l6.57,16.55-2.95,6.72c-.11.26-.09.56.07.8.16.24.42.38.7.38h1.77c.34,0,.64-.2.77-.51l10.34-23.92c.11-.26.09-.56-.07-.8Z" style="fill: rgb(29, 23, 78);"></path><path class="st0" d="M161.81,15.52h-3.41v-5.72c0-.46-.38-.84-.84-.84h-1.58c-.46,0-.84.38-.84.84v5.72h-2.82c-.46,0-.84.38-.84.84v1.51c0,.46.38.84.84.84h2.82v14.91c0,.46.38.84.84.84h1.58c.46,0,.84-.38.84-.84v-14.91h3.41c.46,0,.84-.38.84-.84v-1.51c0-.46-.38-.84-.84-.84Z" style="fill: rgb(29, 23, 78);"></path><path class="st0" d="M143.09,15.89c-.16-.23-.42-.37-.7-.37h-1.76c-.34,0-.65.21-.78.52l-5.37,13.08-5.45-13.09c-.13-.31-.44-.52-.78-.52h-1.66c-.28,0-.54.14-.7.37-.16.23-.19.53-.08.79l7.01,17.05.09.22c.13.32.44.52.78.52h1.6c.34,0,.65-.21.78-.52l7.1-17.27c.11-.26.08-.56-.08-.79Z" style="fill: rgb(29, 23, 78);"></path><path class="st0" d="M101.57,17.04c-1.55-1.28-3.54-1.93-5.91-1.93h0c-.76-.03-1.53.05-2.31.21-.77.17-1.51.43-2.2.77-.37.18-.72.4-1.06.63v-.37c0-.46-.38-.84-.84-.84h-1.58c-.46,0-.84.38-.84.84v17.27c0,.46.38.84.84.84h1.58c.46,0,.84-.38.84-.84v-9.88c0-1.74.48-3.08,1.43-3.98.97-.93,2.35-1.42,4.1-1.45.74,0,1.47.1,2.18.3.63.18,1.21.5,1.71.96.48.43.87,1.04,1.17,1.81.31.81.47,1.87.47,3.15v9.1c0,.46.38.84.84.84h1.58c.46,0,.84-.38.84-.84v-9.1c0-3.37-.95-5.89-2.84-7.48Z" style="fill: rgb(29, 23, 78);"></path><path class="st0" d="M83.81,20.65c-.56-1.17-1.3-2.18-2.22-3-.91-.81-1.95-1.45-3.11-1.88-1.15-.43-2.37-.66-3.61-.66-1.38,0-2.69.25-3.9.74-1.22.5-2.28,1.2-3.17,2.09s-1.59,1.95-2.1,3.15c-.5,1.19-.76,2.51-.77,3.9v.04c0,1.37.26,2.67.75,3.86.5,1.2,1.19,2.26,2.07,3.15.88.89,1.94,1.6,3.15,2.09,1.2.49,2.54.75,3.96.75.93,0,1.86-.12,2.76-.35.91-.24,1.78-.6,2.58-1.09.8-.49,1.53-1.11,2.19-1.85.48-.54.91-1.17,1.28-1.85.14-.26.13-.58-.02-.83-.15-.25-.43-.41-.72-.41h-1.83c-.28,0-.55.14-.7.38-.51.77-1.15,1.39-1.91,1.85-1.06.63-2.26.96-3.58.96-.68,0-1.43-.13-2.22-.39-.77-.25-1.5-.66-2.15-1.2-.64-.53-1.19-1.22-1.63-2.05-.27-.51-.45-1.1-.56-1.76h15.53c.44,0,.81-.34.84-.79l.05-.84s0-.06,0-.1c-.07-1.42-.39-2.74-.94-3.91ZM74.94,18.31c.79-.04,1.57.1,2.33.4.78.31,1.49.75,2.1,1.3.61.56,1.12,1.22,1.51,1.98.18.35.32.71.43,1.09h-12.85c.1-.4.25-.79.43-1.15.37-.74.86-1.38,1.45-1.91.6-.54,1.3-.96,2.08-1.26.78-.3,1.62-.45,2.5-.45.01,0,.02,0,.04,0Z" style="fill: rgb(29, 23, 78);"></path><path class="st0" d="M125.37,20.65c-.56-1.17-1.3-2.18-2.22-3-.91-.81-1.95-1.45-3.11-1.88-1.15-.43-2.37-.66-3.61-.66-1.38,0-2.69.25-3.9.74-1.22.5-2.28,1.2-3.17,2.09s-1.59,1.95-2.1,3.15c-.5,1.19-.76,2.51-.77,3.9v.04c0,1.37.26,2.67.75,3.86.5,1.2,1.19,2.26,2.07,3.15.88.89,1.94,1.6,3.15,2.09,1.2.49,2.54.75,3.96.75.93,0,1.86-.12,2.76-.35.91-.24,1.78-.6,2.58-1.09.8-.49,1.53-1.11,2.19-1.85.48-.54.91-1.17,1.28-1.85.14-.26.13-.58-.02-.83-.15-.25-.43-.41-.72-.41h-1.83c-.28,0-.55.14-.7.38-.51.77-1.15,1.39-1.91,1.85-1.06.63-2.26.96-3.58.96-.68,0-1.43-.13-2.22-.39-.77-.25-1.5-.66-2.15-1.2-.64-.53-1.19-1.22-1.63-2.05-.27-.51-.45-1.1-.56-1.76h15.53c.44,0,.81-.34.84-.79l.05-.84s0-.06,0-.1c-.07-1.42-.39-2.74-.94-3.91ZM116.5,18.31c.79-.04,1.57.1,2.33.4.78.31,1.49.75,2.1,1.3.61.56,1.12,1.22,1.51,1.98.18.35.32.71.43,1.09h-12.85c.1-.4.25-.79.43-1.15.37-.74.86-1.38,1.45-1.91.6-.54,1.3-.96,2.08-1.26.78-.3,1.62-.45,2.5-.45.01,0,.02,0,.04,0Z" style="fill: rgb(29, 23, 78);"></path><g><rect class="st0" x="145.45" y="15.52" width="3.26" height="18.95" rx=".84" ry=".84" style="fill: rgb(29, 23, 78);"></rect><circle class="st0" cx="147.08" cy="11" r="2.04" style="fill: rgb(29, 23, 78);"></circle></g></g>
<path class="st0" d="M53.23,15.11c-2.58,0-4.94.97-6.71,2.57v-7.89c0-.46-.38-.84-.84-.84h-1.58c-.46,0-.84.38-.84.84v15.2c0,5.46,4.46,9.88,9.97,9.88s9.97-4.42,9.97-9.88-4.46-9.88-9.97-9.88ZM53.29,31.68c-3.67,0-6.65-2.99-6.65-6.68s2.98-6.68,6.65-6.68,6.65,2.99,6.65,6.68-2.98,6.68-6.65,6.68Z" style="fill: rgb(29, 23, 78);"></path>
<g><path class="st0" d="M184.65,17.84h-.38v-1.99h-.68v-.33h1.74v.33h-.68v1.99Z" style="fill: rgb(29, 23, 78);"></path><path class="st0" d="M186.69,17.84l-.67-1.94h-.01c.02.29.03.56.03.81v1.13h-.34v-2.32h.53l.64,1.85h0l.66-1.85h.54v2.32h-.36v-1.15c0-.12,0-.27,0-.45,0-.19.01-.3.02-.34h-.01l-.7,1.93h-.33Z" style="fill: rgb(29, 23, 78);"></path></g>
<path class="st0" d="M184.65,17.84h-.38v-1.99h-.68v-.33h1.74v.33h-.68v1.99Z" style="fill: rgb(29, 23, 78);"></path>
<path class="st0" d="M186.69,17.84l-.67-1.94h-.01c.02.29.03.56.03.81v1.13h-.34v-2.32h.53l.64,1.85h0l.66-1.85h.54v2.32h-.36v-1.15c0-.12,0-.27,0-.45,0-.19.01-.3.02-.34h-.01l-.7,1.93h-.33Z" style="fill: rgb(29, 23, 78);"></path>
<g><path class="st0" d="M184.65,17.84h-.38v-1.99h-.68v-.33h1.74v.33h-.68v1.99Z" style="fill: rgb(29, 23, 78);"></path><path class="st0" d="M186.69,17.84l-.67-1.94h-.01c.02.29.03.56.03.81v1.13h-.34v-2.32h.53l.64,1.85h0l.66-1.85h.54v2.32h-.36v-1.15c0-.12,0-.27,0-.45,0-.19.01-.3.02-.34h-.01l-.7,1.93h-.33Z" style="fill: rgb(29, 23, 78);"></path></g>
<path class="st0" d="M181.07,15.9c-.16-.24-.42-.38-.7-.38h-1.8c-.34,0-.64.2-.77.51l-5.49,12.9-5.14-12.88c-.13-.32-.44-.53-.78-.53h-1.72c-.28,0-.54.14-.7.37-.16.23-.19.52-.09.78l6.57,16.55-2.95,6.72c-.11.26-.09.56.07.8.16.24.42.38.7.38h1.77c.34,0,.64-.2.77-.51l10.34-23.92c.11-.26.09-.56-.07-.8Z" style="fill: rgb(29, 23, 78);"></path>
<path class="st0" d="M161.81,15.52h-3.41v-5.72c0-.46-.38-.84-.84-.84h-1.58c-.46,0-.84.38-.84.84v5.72h-2.82c-.46,0-.84.38-.84.84v1.51c0,.46.38.84.84.84h2.82v14.91c0,.46.38.84.84.84h1.58c.46,0,.84-.38.84-.84v-14.91h3.41c.46,0,.84-.38.84-.84v-1.51c0-.46-.38-.84-.84-.84Z" style="fill: rgb(29, 23, 78);"></path>
<path class="st0" d="M143.09,15.89c-.16-.23-.42-.37-.7-.37h-1.76c-.34,0-.65.21-.78.52l-5.37,13.08-5.45-13.09c-.13-.31-.44-.52-.78-.52h-1.66c-.28,0-.54.14-.7.37-.16.23-.19.53-.08.79l7.01,17.05.09.22c.13.32.44.52.78.52h1.6c.34,0,.65-.21.78-.52l7.1-17.27c.11-.26.08-.56-.08-.79Z" style="fill: rgb(29, 23, 78);"></path>
<path class="st0" d="M101.57,17.04c-1.55-1.28-3.54-1.93-5.91-1.93h0c-.76-.03-1.53.05-2.31.21-.77.17-1.51.43-2.2.77-.37.18-.72.4-1.06.63v-.37c0-.46-.38-.84-.84-.84h-1.58c-.46,0-.84.38-.84.84v17.27c0,.46.38.84.84.84h1.58c.46,0,.84-.38.84-.84v-9.88c0-1.74.48-3.08,1.43-3.98.97-.93,2.35-1.42,4.1-1.45.74,0,1.47.1,2.18.3.63.18,1.21.5,1.71.96.48.43.87,1.04,1.17,1.81.31.81.47,1.87.47,3.15v9.1c0,.46.38.84.84.84h1.58c.46,0,.84-.38.84-.84v-9.1c0-3.37-.95-5.89-2.84-7.48Z" style="fill: rgb(29, 23, 78);"></path>
<path class="st0" d="M83.81,20.65c-.56-1.17-1.3-2.18-2.22-3-.91-.81-1.95-1.45-3.11-1.88-1.15-.43-2.37-.66-3.61-.66-1.38,0-2.69.25-3.9.74-1.22.5-2.28,1.2-3.17,2.09s-1.59,1.95-2.1,3.15c-.5,1.19-.76,2.51-.77,3.9v.04c0,1.37.26,2.67.75,3.86.5,1.2,1.19,2.26,2.07,3.15.88.89,1.94,1.6,3.15,2.09,1.2.49,2.54.75,3.96.75.93,0,1.86-.12,2.76-.35.91-.24,1.78-.6,2.58-1.09.8-.49,1.53-1.11,2.19-1.85.48-.54.91-1.17,1.28-1.85.14-.26.13-.58-.02-.83-.15-.25-.43-.41-.72-.41h-1.83c-.28,0-.55.14-.7.38-.51.77-1.15,1.39-1.91,1.85-1.06.63-2.26.96-3.58.96-.68,0-1.43-.13-2.22-.39-.77-.25-1.5-.66-2.15-1.2-.64-.53-1.19-1.22-1.63-2.05-.27-.51-.45-1.1-.56-1.76h15.53c.44,0,.81-.34.84-.79l.05-.84s0-.06,0-.1c-.07-1.42-.39-2.74-.94-3.91ZM74.94,18.31c.79-.04,1.57.1,2.33.4.78.31,1.49.75,2.1,1.3.61.56,1.12,1.22,1.51,1.98.18.35.32.71.43,1.09h-12.85c.1-.4.25-.79.43-1.15.37-.74.86-1.38,1.45-1.91.6-.54,1.3-.96,2.08-1.26.78-.3,1.62-.45,2.5-.45.01,0,.02,0,.04,0Z" style="fill: rgb(29, 23, 78);"></path>
<path class="st0" d="M125.37,20.65c-.56-1.17-1.3-2.18-2.22-3-.91-.81-1.95-1.45-3.11-1.88-1.15-.43-2.37-.66-3.61-.66-1.38,0-2.69.25-3.9.74-1.22.5-2.28,1.2-3.17,2.09s-1.59,1.95-2.1,3.15c-.5,1.19-.76,2.51-.77,3.9v.04c0,1.37.26,2.67.75,3.86.5,1.2,1.19,2.26,2.07,3.15.88.89,1.94,1.6,3.15,2.09,1.2.49,2.54.75,3.96.75.93,0,1.86-.12,2.76-.35.91-.24,1.78-.6,2.58-1.09.8-.49,1.53-1.11,2.19-1.85.48-.54.91-1.17,1.28-1.85.14-.26.13-.58-.02-.83-.15-.25-.43-.41-.72-.41h-1.83c-.28,0-.55.14-.7.38-.51.77-1.15,1.39-1.91,1.85-1.06.63-2.26.96-3.58.96-.68,0-1.43-.13-2.22-.39-.77-.25-1.5-.66-2.15-1.2-.64-.53-1.19-1.22-1.63-2.05-.27-.51-.45-1.1-.56-1.76h15.53c.44,0,.81-.34.84-.79l.05-.84s0-.06,0-.1c-.07-1.42-.39-2.74-.94-3.91ZM116.5,18.31c.79-.04,1.57.1,2.33.4.78.31,1.49.75,2.1,1.3.61.56,1.12,1.22,1.51,1.98.18.35.32.71.43,1.09h-12.85c.1-.4.25-.79.43-1.15.37-.74.86-1.38,1.45-1.91.6-.54,1.3-.96,2.08-1.26.78-.3,1.62-.45,2.5-.45.01,0,.02,0,.04,0Z" style="fill: rgb(29, 23, 78);"></path>
<g><rect class="st0" x="145.45" y="15.52" width="3.26" height="18.95" rx=".84" ry=".84" style="fill: rgb(29, 23, 78);"></rect><circle class="st0" cx="147.08" cy="11" r="2.04" style="fill: rgb(29, 23, 78);"></circle></g>
<rect class="st0" x="145.45" y="15.52" width="3.26" height="18.95" rx=".84" ry=".84" style="fill: rgb(29, 23, 78);"></rect>
<circle class="st0" cx="147.08" cy="11" r="2.04" style="fill: rgb(29, 23, 78);"></circle>
<g><rect class="st0" x="145.45" y="15.52" width="3.26" height="18.95" rx=".84" ry=".84" style="fill: rgb(29, 23, 78);"></rect><circle class="st0" cx="147.08" cy="11" r="2.04" style="fill: rgb(29, 23, 78);"></circle></g>
<g><path class="st0" d="M53.23,15.11c-2.58,0-4.94.97-6.71,2.57v-7.89c0-.46-.38-.84-.84-.84h-1.58c-.46,0-.84.38-.84.84v15.2c0,5.46,4.46,9.88,9.97,9.88s9.97-4.42,9.97-9.88-4.46-9.88-9.97-9.88ZM53.29,31.68c-3.67,0-6.65-2.99-6.65-6.68s2.98-6.68,6.65-6.68,6.65,2.99,6.65,6.68-2.98,6.68-6.65,6.68Z" style="fill: rgb(29, 23, 78);"></path><g><path class="st0" d="M184.65,17.84h-.38v-1.99h-.68v-.33h1.74v.33h-.68v1.99Z" style="fill: rgb(29, 23, 78);"></path><path class="st0" d="M186.69,17.84l-.67-1.94h-.01c.02.29.03.56.03.81v1.13h-.34v-2.32h.53l.64,1.85h0l.66-1.85h.54v2.32h-.36v-1.15c0-.12,0-.27,0-.45,0-.19.01-.3.02-.34h-.01l-.7,1.93h-.33Z" style="fill: rgb(29, 23, 78);"></path></g><path class="st0" d="M181.07,15.9c-.16-.24-.42-.38-.7-.38h-1.8c-.34,0-.64.2-.77.51l-5.49,12.9-5.14-12.88c-.13-.32-.44-.53-.78-.53h-1.72c-.28,0-.54.14-.7.37-.16.23-.19.52-.09.78l6.57,16.55-2.95,6.72c-.11.26-.09.56.07.8.16.24.42.38.7.38h1.77c.34,0,.64-.2.77-.51l10.34-23.92c.11-.26.09-.56-.07-.8Z" style="fill: rgb(29, 23, 78);"></path><path class="st0" d="M161.81,15.52h-3.41v-5.72c0-.46-.38-.84-.84-.84h-1.58c-.46,0-.84.38-.84.84v5.72h-2.82c-.46,0-.84.38-.84.84v1.51c0,.46.38.84.84.84h2.82v14.91c0,.46.38.84.84.84h1.58c.46,0,.84-.38.84-.84v-14.91h3.41c.46,0,.84-.38.84-.84v-1.51c0-.46-.38-.84-.84-.84Z" style="fill: rgb(29, 23, 78);"></path><path class="st0" d="M143.09,15.89c-.16-.23-.42-.37-.7-.37h-1.76c-.34,0-.65.21-.78.52l-5.37,13.08-5.45-13.09c-.13-.31-.44-.52-.78-.52h-1.66c-.28,0-.54.14-.7.37-.16.23-.19.53-.08.79l7.01,17.05.09.22c.13.32.44.52.78.52h1.6c.34,0,.65-.21.78-.52l7.1-17.27c.11-.26.08-.56-.08-.79Z" style="fill: rgb(29, 23, 78);"></path><path class="st0" d="M101.57,17.04c-1.55-1.28-3.54-1.93-5.91-1.93h0c-.76-.03-1.53.05-2.31.21-.77.17-1.51.43-2.2.77-.37.18-.72.4-1.06.63v-.37c0-.46-.38-.84-.84-.84h-1.58c-.46,0-.84.38-.84.84v17.27c0,.46.38.84.84.84h1.58c.46,0,.84-.38.84-.84v-9.88c0-1.74.48-3.08,1.43-3.98.97-.93,2.35-1.42,4.1-1.45.74,0,1.47.1,2.18.3.63.18,1.21.5,1.71.96.48.43.87,1.04,1.17,1.81.31.81.47,1.87.47,3.15v9.1c0,.46.38.84.84.84h1.58c.46,0,.84-.38.84-.84v-9.1c0-3.37-.95-5.89-2.84-7.48Z" style="fill: rgb(29, 23, 78);"></path><path class="st0" d="M83.81,20.65c-.56-1.17-1.3-2.18-2.22-3-.91-.81-1.95-1.45-3.11-1.88-1.15-.43-2.37-.66-3.61-.66-1.38,0-2.69.25-3.9.74-1.22.5-2.28,1.2-3.17,2.09s-1.59,1.95-2.1,3.15c-.5,1.19-.76,2.51-.77,3.9v.04c0,1.37.26,2.67.75,3.86.5,1.2,1.19,2.26,2.07,3.15.88.89,1.94,1.6,3.15,2.09,1.2.49,2.54.75,3.96.75.93,0,1.86-.12,2.76-.35.91-.24,1.78-.6,2.58-1.09.8-.49,1.53-1.11,2.19-1.85.48-.54.91-1.17,1.28-1.85.14-.26.13-.58-.02-.83-.15-.25-.43-.41-.72-.41h-1.83c-.28,0-.55.14-.7.38-.51.77-1.15,1.39-1.91,1.85-1.06.63-2.26.96-3.58.96-.68,0-1.43-.13-2.22-.39-.77-.25-1.5-.66-2.15-1.2-.64-.53-1.19-1.22-1.63-2.05-.27-.51-.45-1.1-.56-1.76h15.53c.44,0,.81-.34.84-.79l.05-.84s0-.06,0-.1c-.07-1.42-.39-2.74-.94-3.91ZM74.94,18.31c.79-.04,1.57.1,2.33.4.78.31,1.49.75,2.1,1.3.61.56,1.12,1.22,1.51,1.98.18.35.32.71.43,1.09h-12.85c.1-.4.25-.79.43-1.15.37-.74.86-1.38,1.45-1.91.6-.54,1.3-.96,2.08-1.26.78-.3,1.62-.45,2.5-.45.01,0,.02,0,.04,0Z" style="fill: rgb(29, 23, 78);"></path><path class="st0" d="M125.37,20.65c-.56-1.17-1.3-2.18-2.22-3-.91-.81-1.95-1.45-3.11-1.88-1.15-.43-2.37-.66-3.61-.66-1.38,0-2.69.25-3.9.74-1.22.5-2.28,1.2-3.17,2.09s-1.59,1.95-2.1,3.15c-.5,1.19-.76,2.51-.77,3.9v.04c0,1.37.26,2.67.75,3.86.5,1.2,1.19,2.26,2.07,3.15.88.89,1.94,1.6,3.15,2.09,1.2.49,2.54.75,3.96.75.93,0,1.86-.12,2.76-.35.91-.24,1.78-.6,2.58-1.09.8-.49,1.53-1.11,2.19-1.85.48-.54.91-1.17,1.28-1.85.14-.26.13-.58-.02-.83-.15-.25-.43-.41-.72-.41h-1.83c-.28,0-.55.14-.7.38-.51.77-1.15,1.39-1.91,1.85-1.06.63-2.26.96-3.58.96-.68,0-1.43-.13-2.22-.39-.77-.25-1.5-.66-2.15-1.2-.64-.53-1.19-1.22-1.63-2.05-.27-.51-.45-1.1-.56-1.76h15.53c.44,0,.81-.34.84-.79l.05-.84s0-.06,0-.1c-.07-1.42-.39-2.74-.94-3.91ZM116.5,18.31c.79-.04,1.57.1,2.33.4.78.31,1.49.75,2.1,1.3.61.56,1.12,1.22,1.51,1.98.18.35.32.71.43,1.09h-12.85c.1-.4.25-.79.43-1.15.37-.74.86-1.38,1.45-1.91.6-.54,1.3-.96,2.08-1.26.78-.3,1.62-.45,2.5-.45.01,0,.02,0,.04,0Z" style="fill: rgb(29, 23, 78);"></path><g><rect class="st0" x="145.45" y="15.52" width="3.26" height="18.95" rx=".84" ry=".84" style="fill: rgb(29, 23, 78);"></rect><circle class="st0" cx="147.08" cy="11" r="2.04" style="fill: rgb(29, 23, 78);"></circle></g></g>
<g><path class="st0" d="M24.91,34.83c-2.64,0-5.12-1.03-6.99-2.9-1.9-1.9-2.93-4.43-2.89-7.12V8.52c0-1.39,1.12-2.52,2.51-2.52s2.51,1.13,2.51,2.52v16.33c-.02,1.35.49,2.6,1.42,3.54.92.92,2.14,1.43,3.44,1.43s2.52-.51,3.44-1.43c.92-.92,1.42-2.14,1.42-3.44s-.5-2.52-1.42-3.44c-.92-.92-2.14-1.42-3.44-1.42-1.39,0-2.51-1.12-2.51-2.51s1.12-2.51,2.51-2.51c2.64,0,5.13,1.03,6.99,2.89,1.87,1.87,2.89,4.35,2.89,6.99s-1.03,5.12-2.89,6.99c-1.87,1.87-4.35,2.9-6.99,2.9Z" style="fill: rgb(29, 23, 78);"></path><path class="st0" d="M12.89,17.41c0,1.39-1.12,2.51-2.51,2.51s-2.51-1.12-2.51-2.51,1.13-2.51,2.51-2.51,2.51,1.13,2.51,2.51Z" style="fill: rgb(29, 23, 78);"></path></g>
<path class="st0" d="M24.91,34.83c-2.64,0-5.12-1.03-6.99-2.9-1.9-1.9-2.93-4.43-2.89-7.12V8.52c0-1.39,1.12-2.52,2.51-2.52s2.51,1.13,2.51,2.52v16.33c-.02,1.35.49,2.6,1.42,3.54.92.92,2.14,1.43,3.44,1.43s2.52-.51,3.44-1.43c.92-.92,1.42-2.14,1.42-3.44s-.5-2.52-1.42-3.44c-.92-.92-2.14-1.42-3.44-1.42-1.39,0-2.51-1.12-2.51-2.51s1.12-2.51,2.51-2.51c2.64,0,5.13,1.03,6.99,2.89,1.87,1.87,2.89,4.35,2.89,6.99s-1.03,5.12-2.89,6.99c-1.87,1.87-4.35,2.9-6.99,2.9Z" style="fill: rgb(29, 23, 78);"></path>
<path class="st0" d="M12.89,17.41c0,1.39-1.12,2.51-2.51,2.51s-2.51-1.12-2.51-2.51,1.13-2.51,2.51-2.51,2.51,1.13,2.51,2.51Z" style="fill: rgb(29, 23, 78);"></path>
<g><path class="st0" d="M24.91,34.83c-2.64,0-5.12-1.03-6.99-2.9-1.9-1.9-2.93-4.43-2.89-7.12V8.52c0-1.39,1.12-2.52,2.51-2.52s2.51,1.13,2.51,2.52v16.33c-.02,1.35.49,2.6,1.42,3.54.92.92,2.14,1.43,3.44,1.43s2.52-.51,3.44-1.43c.92-.92,1.42-2.14,1.42-3.44s-.5-2.52-1.42-3.44c-.92-.92-2.14-1.42-3.44-1.42-1.39,0-2.51-1.12-2.51-2.51s1.12-2.51,2.51-2.51c2.64,0,5.13,1.03,6.99,2.89,1.87,1.87,2.89,4.35,2.89,6.99s-1.03,5.12-2.89,6.99c-1.87,1.87-4.35,2.9-6.99,2.9Z" style="fill: rgb(29, 23, 78);"></path><path class="st0" d="M12.89,17.41c0,1.39-1.12,2.51-2.51,2.51s-2.51-1.12-2.51-2.51,1.13-2.51,2.51-2.51,2.51,1.13,2.51,2.51Z" style="fill: rgb(29, 23, 78);"></path></g>
<g><g><path class="st0" d="M53.23,15.11c-2.58,0-4.94.97-6.71,2.57v-7.89c0-.46-.38-.84-.84-.84h-1.58c-.46,0-.84.38-.84.84v15.2c0,5.46,4.46,9.88,9.97,9.88s9.97-4.42,9.97-9.88-4.46-9.88-9.97-9.88ZM53.29,31.68c-3.67,0-6.65-2.99-6.65-6.68s2.98-6.68,6.65-6.68,6.65,2.99,6.65,6.68-2.98,6.68-6.65,6.68Z" style="fill: rgb(29, 23, 78);"></path><g><path class="st0" d="M184.65,17.84h-.38v-1.99h-.68v-.33h1.74v.33h-.68v1.99Z" style="fill: rgb(29, 23, 78);"></path><path class="st0" d="M186.69,17.84l-.67-1.94h-.01c.02.29.03.56.03.81v1.13h-.34v-2.32h.53l.64,1.85h0l.66-1.85h.54v2.32h-.36v-1.15c0-.12,0-.27,0-.45,0-.19.01-.3.02-.34h-.01l-.7,1.93h-.33Z" style="fill: rgb(29, 23, 78);"></path></g><path class="st0" d="M181.07,15.9c-.16-.24-.42-.38-.7-.38h-1.8c-.34,0-.64.2-.77.51l-5.49,12.9-5.14-12.88c-.13-.32-.44-.53-.78-.53h-1.72c-.28,0-.54.14-.7.37-.16.23-.19.52-.09.78l6.57,16.55-2.95,6.72c-.11.26-.09.56.07.8.16.24.42.38.7.38h1.77c.34,0,.64-.2.77-.51l10.34-23.92c.11-.26.09-.56-.07-.8Z" style="fill: rgb(29, 23, 78);"></path><path class="st0" d="M161.81,15.52h-3.41v-5.72c0-.46-.38-.84-.84-.84h-1.58c-.46,0-.84.38-.84.84v5.72h-2.82c-.46,0-.84.38-.84.84v1.51c0,.46.38.84.84.84h2.82v14.91c0,.46.38.84.84.84h1.58c.46,0,.84-.38.84-.84v-14.91h3.41c.46,0,.84-.38.84-.84v-1.51c0-.46-.38-.84-.84-.84Z" style="fill: rgb(29, 23, 78);"></path><path class="st0" d="M143.09,15.89c-.16-.23-.42-.37-.7-.37h-1.76c-.34,0-.65.21-.78.52l-5.37,13.08-5.45-13.09c-.13-.31-.44-.52-.78-.52h-1.66c-.28,0-.54.14-.7.37-.16.23-.19.53-.08.79l7.01,17.05.09.22c.13.32.44.52.78.52h1.6c.34,0,.65-.21.78-.52l7.1-17.27c.11-.26.08-.56-.08-.79Z" style="fill: rgb(29, 23, 78);"></path><path class="st0" d="M101.57,17.04c-1.55-1.28-3.54-1.93-5.91-1.93h0c-.76-.03-1.53.05-2.31.21-.77.17-1.51.43-2.2.77-.37.18-.72.4-1.06.63v-.37c0-.46-.38-.84-.84-.84h-1.58c-.46,0-.84.38-.84.84v17.27c0,.46.38.84.84.84h1.58c.46,0,.84-.38.84-.84v-9.88c0-1.74.48-3.08,1.43-3.98.97-.93,2.35-1.42,4.1-1.45.74,0,1.47.1,2.18.3.63.18,1.21.5,1.71.96.48.43.87,1.04,1.17,1.81.31.81.47,1.87.47,3.15v9.1c0,.46.38.84.84.84h1.58c.46,0,.84-.38.84-.84v-9.1c0-3.37-.95-5.89-2.84-7.48Z" style="fill: rgb(29, 23, 78);"></path><path class="st0" d="M83.81,20.65c-.56-1.17-1.3-2.18-2.22-3-.91-.81-1.95-1.45-3.11-1.88-1.15-.43-2.37-.66-3.61-.66-1.38,0-2.69.25-3.9.74-1.22.5-2.28,1.2-3.17,2.09s-1.59,1.95-2.1,3.15c-.5,1.19-.76,2.51-.77,3.9v.04c0,1.37.26,2.67.75,3.86.5,1.2,1.19,2.26,2.07,3.15.88.89,1.94,1.6,3.15,2.09,1.2.49,2.54.75,3.96.75.93,0,1.86-.12,2.76-.35.91-.24,1.78-.6,2.58-1.09.8-.49,1.53-1.11,2.19-1.85.48-.54.91-1.17,1.28-1.85.14-.26.13-.58-.02-.83-.15-.25-.43-.41-.72-.41h-1.83c-.28,0-.55.14-.7.38-.51.77-1.15,1.39-1.91,1.85-1.06.63-2.26.96-3.58.96-.68,0-1.43-.13-2.22-.39-.77-.25-1.5-.66-2.15-1.2-.64-.53-1.19-1.22-1.63-2.05-.27-.51-.45-1.1-.56-1.76h15.53c.44,0,.81-.34.84-.79l.05-.84s0-.06,0-.1c-.07-1.42-.39-2.74-.94-3.91ZM74.94,18.31c.79-.04,1.57.1,2.33.4.78.31,1.49.75,2.1,1.3.61.56,1.12,1.22,1.51,1.98.18.35.32.71.43,1.09h-12.85c.1-.4.25-.79.43-1.15.37-.74.86-1.38,1.45-1.91.6-.54,1.3-.96,2.08-1.26.78-.3,1.62-.45,2.5-.45.01,0,.02,0,.04,0Z" style="fill: rgb(29, 23, 78);"></path><path class="st0" d="M125.37,20.65c-.56-1.17-1.3-2.18-2.22-3-.91-.81-1.95-1.45-3.11-1.88-1.15-.43-2.37-.66-3.61-.66-1.38,0-2.69.25-3.9.74-1.22.5-2.28,1.2-3.17,2.09s-1.59,1.95-2.1,3.15c-.5,1.19-.76,2.51-.77,3.9v.04c0,1.37.26,2.67.75,3.86.5,1.2,1.19,2.26,2.07,3.15.88.89,1.94,1.6,3.15,2.09,1.2.49,2.54.75,3.96.75.93,0,1.86-.12,2.76-.35.91-.24,1.78-.6,2.58-1.09.8-.49,1.53-1.11,2.19-1.85.48-.54.91-1.17,1.28-1.85.14-.26.13-.58-.02-.83-.15-.25-.43-.41-.72-.41h-1.83c-.28,0-.55.14-.7.38-.51.77-1.15,1.39-1.91,1.85-1.06.63-2.26.96-3.58.96-.68,0-1.43-.13-2.22-.39-.77-.25-1.5-.66-2.15-1.2-.64-.53-1.19-1.22-1.63-2.05-.27-.51-.45-1.1-.56-1.76h15.53c.44,0,.81-.34.84-.79l.05-.84s0-.06,0-.1c-.07-1.42-.39-2.74-.94-3.91ZM116.5,18.31c.79-.04,1.57.1,2.33.4.78.31,1.49.75,2.1,1.3.61.56,1.12,1.22,1.51,1.98.18.35.32.71.43,1.09h-12.85c.1-.4.25-.79.43-1.15.37-.74.86-1.38,1.45-1.91.6-.54,1.3-.96,2.08-1.26.78-.3,1.62-.45,2.5-.45.01,0,.02,0,.04,0Z" style="fill: rgb(29, 23, 78);"></path><g><rect class="st0" x="145.45" y="15.52" width="3.26" height="18.95" rx=".84" ry=".84" style="fill: rgb(29, 23, 78);"></rect><circle class="st0" cx="147.08" cy="11" r="2.04" style="fill: rgb(29, 23, 78);"></circle></g></g><g><path class="st0" d="M24.91,34.83c-2.64,0-5.12-1.03-6.99-2.9-1.9-1.9-2.93-4.43-2.89-7.12V8.52c0-1.39,1.12-2.52,2.51-2.52s2.51,1.13,2.51,2.52v16.33c-.02,1.35.49,2.6,1.42,3.54.92.92,2.14,1.43,3.44,1.43s2.52-.51,3.44-1.43c.92-.92,1.42-2.14,1.42-3.44s-.5-2.52-1.42-3.44c-.92-.92-2.14-1.42-3.44-1.42-1.39,0-2.51-1.12-2.51-2.51s1.12-2.51,2.51-2.51c2.64,0,5.13,1.03,6.99,2.89,1.87,1.87,2.89,4.35,2.89,6.99s-1.03,5.12-2.89,6.99c-1.87,1.87-4.35,2.9-6.99,2.9Z" style="fill: rgb(29, 23, 78);"></path><path class="st0" d="M12.89,17.41c0,1.39-1.12,2.51-2.51,2.51s-2.51-1.12-2.51-2.51,1.13-2.51,2.51-2.51,2.51,1.13,2.51,2.51Z" style="fill: rgb(29, 23, 78);"></path></g></g>
<path class="st1" d="M32.29,2.55c-3.4-3.4-8.92-3.4-12.32,0-1.7,1.7-2.55,3.93-2.55,6.16v.11c.03-2.27-.82-4.54-2.55-6.27C11.47-.85,5.95-.85,2.55,2.55-.85,5.95-.85,11.47,2.55,14.87c1.7,1.7,3.93,2.55,6.15,2.55-2.23,0-4.45.85-6.15,2.55-3.4,3.4-3.4,8.92,0,12.32,3.4,3.4,8.92,3.4,12.32,0,1.73-1.73,2.58-4.01,2.55-6.27v-8.6h8.59c2.27.03,4.54-.82,6.28-2.55,3.4-3.4,3.4-8.92,0-12.32Z" style="fill: rgb(75, 164, 218); opacity: 1;"></path><g><g><path class="st0" d="M53.23,15.11c-2.58,0-4.94.97-6.71,2.57v-7.89c0-.46-.38-.84-.84-.84h-1.58c-.46,0-.84.38-.84.84v15.2c0,5.46,4.46,9.88,9.97,9.88s9.97-4.42,9.97-9.88-4.46-9.88-9.97-9.88ZM53.29,31.68c-3.67,0-6.65-2.99-6.65-6.68s2.98-6.68,6.65-6.68,6.65,2.99,6.65,6.68-2.98,6.68-6.65,6.68Z" style="fill: rgb(29, 23, 78);"></path><g><path class="st0" d="M184.65,17.84h-.38v-1.99h-.68v-.33h1.74v.33h-.68v1.99Z" style="fill: rgb(29, 23, 78);"></path><path class="st0" d="M186.69,17.84l-.67-1.94h-.01c.02.29.03.56.03.81v1.13h-.34v-2.32h.53l.64,1.85h0l.66-1.85h.54v2.32h-.36v-1.15c0-.12,0-.27,0-.45,0-.19.01-.3.02-.34h-.01l-.7,1.93h-.33Z" style="fill: rgb(29, 23, 78);"></path></g><path class="st0" d="M181.07,15.9c-.16-.24-.42-.38-.7-.38h-1.8c-.34,0-.64.2-.77.51l-5.49,12.9-5.14-12.88c-.13-.32-.44-.53-.78-.53h-1.72c-.28,0-.54.14-.7.37-.16.23-.19.52-.09.78l6.57,16.55-2.95,6.72c-.11.26-.09.56.07.8.16.24.42.38.7.38h1.77c.34,0,.64-.2.77-.51l10.34-23.92c.11-.26.09-.56-.07-.8Z" style="fill: rgb(29, 23, 78);"></path><path class="st0" d="M161.81,15.52h-3.41v-5.72c0-.46-.38-.84-.84-.84h-1.58c-.46,0-.84.38-.84.84v5.72h-2.82c-.46,0-.84.38-.84.84v1.51c0,.46.38.84.84.84h2.82v14.91c0,.46.38.84.84.84h1.58c.46,0,.84-.38.84-.84v-14.91h3.41c.46,0,.84-.38.84-.84v-1.51c0-.46-.38-.84-.84-.84Z" style="fill: rgb(29, 23, 78);"></path><path class="st0" d="M143.09,15.89c-.16-.23-.42-.37-.7-.37h-1.76c-.34,0-.65.21-.78.52l-5.37,13.08-5.45-13.09c-.13-.31-.44-.52-.78-.52h-1.66c-.28,0-.54.14-.7.37-.16.23-.19.53-.08.79l7.01,17.05.09.22c.13.32.44.52.78.52h1.6c.34,0,.65-.21.78-.52l7.1-17.27c.11-.26.08-.56-.08-.79Z" style="fill: rgb(29, 23, 78);"></path><path class="st0" d="M101.57,17.04c-1.55-1.28-3.54-1.93-5.91-1.93h0c-.76-.03-1.53.05-2.31.21-.77.17-1.51.43-2.2.77-.37.18-.72.4-1.06.63v-.37c0-.46-.38-.84-.84-.84h-1.58c-.46,0-.84.38-.84.84v17.27c0,.46.38.84.84.84h1.58c.46,0,.84-.38.84-.84v-9.88c0-1.74.48-3.08,1.43-3.98.97-.93,2.35-1.42,4.1-1.45.74,0,1.47.1,2.18.3.63.18,1.21.5,1.71.96.48.43.87,1.04,1.17,1.81.31.81.47,1.87.47,3.15v9.1c0,.46.38.84.84.84h1.58c.46,0,.84-.38.84-.84v-9.1c0-3.37-.95-5.89-2.84-7.48Z" style="fill: rgb(29, 23, 78);"></path><path class="st0" d="M83.81,20.65c-.56-1.17-1.3-2.18-2.22-3-.91-.81-1.95-1.45-3.11-1.88-1.15-.43-2.37-.66-3.61-.66-1.38,0-2.69.25-3.9.74-1.22.5-2.28,1.2-3.17,2.09s-1.59,1.95-2.1,3.15c-.5,1.19-.76,2.51-.77,3.9v.04c0,1.37.26,2.67.75,3.86.5,1.2,1.19,2.26,2.07,3.15.88.89,1.94,1.6,3.15,2.09,1.2.49,2.54.75,3.96.75.93,0,1.86-.12,2.76-.35.91-.24,1.78-.6,2.58-1.09.8-.49,1.53-1.11,2.19-1.85.48-.54.91-1.17,1.28-1.85.14-.26.13-.58-.02-.83-.15-.25-.43-.41-.72-.41h-1.83c-.28,0-.55.14-.7.38-.51.77-1.15,1.39-1.91,1.85-1.06.63-2.26.96-3.58.96-.68,0-1.43-.13-2.22-.39-.77-.25-1.5-.66-2.15-1.2-.64-.53-1.19-1.22-1.63-2.05-.27-.51-.45-1.1-.56-1.76h15.53c.44,0,.81-.34.84-.79l.05-.84s0-.06,0-.1c-.07-1.42-.39-2.74-.94-3.91ZM74.94,18.31c.79-.04,1.57.1,2.33.4.78.31,1.49.75,2.1,1.3.61.56,1.12,1.22,1.51,1.98.18.35.32.71.43,1.09h-12.85c.1-.4.25-.79.43-1.15.37-.74.86-1.38,1.45-1.91.6-.54,1.3-.96,2.08-1.26.78-.3,1.62-.45,2.5-.45.01,0,.02,0,.04,0Z" style="fill: rgb(29, 23, 78);"></path><path class="st0" d="M125.37,20.65c-.56-1.17-1.3-2.18-2.22-3-.91-.81-1.95-1.45-3.11-1.88-1.15-.43-2.37-.66-3.61-.66-1.38,0-2.69.25-3.9.74-1.22.5-2.28,1.2-3.17,2.09s-1.59,1.95-2.1,3.15c-.5,1.19-.76,2.51-.77,3.9v.04c0,1.37.26,2.67.75,3.86.5,1.2,1.19,2.26,2.07,3.15.88.89,1.94,1.6,3.15,2.09,1.2.49,2.54.75,3.96.75.93,0,1.86-.12,2.76-.35.91-.24,1.78-.6,2.58-1.09.8-.49,1.53-1.11,2.19-1.85.48-.54.91-1.17,1.28-1.85.14-.26.13-.58-.02-.83-.15-.25-.43-.41-.72-.41h-1.83c-.28,0-.55.14-.7.38-.51.77-1.15,1.39-1.91,1.85-1.06.63-2.26.96-3.58.96-.68,0-1.43-.13-2.22-.39-.77-.25-1.5-.66-2.15-1.2-.64-.53-1.19-1.22-1.63-2.05-.27-.51-.45-1.1-.56-1.76h15.53c.44,0,.81-.34.84-.79l.05-.84s0-.06,0-.1c-.07-1.42-.39-2.74-.94-3.91ZM116.5,18.31c.79-.04,1.57.1,2.33.4.78.31,1.49.75,2.1,1.3.61.56,1.12,1.22,1.51,1.98.18.35.32.71.43,1.09h-12.85c.1-.4.25-.79.43-1.15.37-.74.86-1.38,1.45-1.91.6-.54,1.3-.96,2.08-1.26.78-.3,1.62-.45,2.5-.45.01,0,.02,0,.04,0Z" style="fill: rgb(29, 23, 78);"></path><g><rect class="st0" x="145.45" y="15.52" width="3.26" height="18.95" rx=".84" ry=".84" style="fill: rgb(29, 23, 78);"></rect><circle class="st0" cx="147.08" cy="11" r="2.04" style="fill: rgb(29, 23, 78);"></circle></g></g><g><path class="st0" d="M24.91,34.83c-2.64,0-5.12-1.03-6.99-2.9-1.9-1.9-2.93-4.43-2.89-7.12V8.52c0-1.39,1.12-2.52,2.51-2.52s2.51,1.13,2.51,2.52v16.33c-.02,1.35.49,2.6,1.42,3.54.92.92,2.14,1.43,3.44,1.43s2.52-.51,3.44-1.43c.92-.92,1.42-2.14,1.42-3.44s-.5-2.52-1.42-3.44c-.92-.92-2.14-1.42-3.44-1.42-1.39,0-2.51-1.12-2.51-2.51s1.12-2.51,2.51-2.51c2.64,0,5.13,1.03,6.99,2.89,1.87,1.87,2.89,4.35,2.89,6.99s-1.03,5.12-2.89,6.99c-1.87,1.87-4.35,2.9-6.99,2.9Z" style="fill: rgb(29, 23, 78);"></path><path class="st0" d="M12.89,17.41c0,1.39-1.12,2.51-2.51,2.51s-2.51-1.12-2.51-2.51,1.13-2.51,2.51-2.51,2.51,1.13,2.51,2.51Z" style="fill: rgb(29, 23, 78);"></path></g></g></svg>