<svg width="751" height="800" viewBox="0 0 751 800" fill="none" xmlns="http://www.w3.org/2000/svg">
<path d="M325.772 231.93C296.533 185.438 383.82 25.6713 383.82 25.6713C383.82 25.6713 564.286 24.2671 590.434 64.7271C616.582 105.187 654.265 464.603 654.265 464.603C654.265 464.603 355.012 278.421 325.772 231.93Z" fill="#F7DEF1" fill-opacity="0.19"/>
<path d="M702.978 99.757C724.063 69.0587 886.095 41.5781 886.095 41.5781C886.095 41.5781 959.204 185.272 935.142 213.986C911.081 242.7 647.987 457.586 647.987 457.586C647.987 457.586 681.893 130.455 702.978 99.757Z" fill="#F7DEF1" fill-opacity="0.19"/>
<path d="M939.091 323.438C972.091 325.385 1050.52 426.657 1050.52 426.657C1050.52 426.657 968.807 540.062 934.751 545.609C900.695 551.155 642.003 457.748 642.003 457.748C642.003 457.748 906.092 321.492 939.091 323.438Z" fill="#F7DEF1" fill-opacity="0.19"/>
<path d="M308.451 348.851C271.726 354.363 175.74 488.099 175.74 488.099C175.74 488.099 271.904 616.876 308.168 607.817C344.432 598.757 652.422 456.256 652.422 456.256C652.422 456.256 345.176 343.34 308.451 348.851Z" fill="#F7DEF1" fill-opacity="0.19"/>
<path d="M408.297 654.819C395.734 685.313 451.665 800.578 451.665 800.578C451.665 800.578 587.718 777.423 607.39 749.299C627.063 721.175 656.182 447.524 656.182 447.524C656.182 447.524 420.86 624.326 408.297 654.819Z" fill="#F7DEF1" fill-opacity="0.19"/>
<path d="M638.754 436.748C638.754 436.748 829.363 683.11 831.144 689.506C832.926 695.902 786.875 724.691 780.407 721.223C773.938 717.756 638.754 436.748 638.754 436.748Z" fill="#F7DEF1" fill-opacity="0.19"/>
<path d="M322.01 235.026C294.635 191.5 376.357 41.9199 376.357 41.9199C376.357 41.9199 545.315 40.6053 569.796 78.4854C594.276 116.365 629.557 452.864 629.557 452.864C629.557 452.864 349.386 278.553 322.01 235.026Z" fill="#FFC7F2"/>
<path d="M675.164 111.282C694.904 82.5412 846.605 56.8129 846.605 56.8129C846.605 56.8129 915.052 191.344 892.525 218.227C869.997 245.11 623.679 446.294 623.679 446.294C623.679 446.294 655.423 140.023 675.164 111.282Z" fill="#FFC7F2"/>
<path d="M896.221 320.701C927.117 322.523 1000.54 417.338 1000.54 417.338C1000.54 417.338 924.042 523.511 892.158 528.704C860.274 533.898 618.076 446.446 618.076 446.446C618.076 446.446 865.326 318.878 896.221 320.701Z" fill="#FFC7F2"/>
<path d="M305.794 344.493C271.41 349.654 181.545 474.862 181.545 474.862C181.545 474.862 271.577 595.428 305.529 586.946C339.481 578.464 627.832 445.05 627.832 445.05C627.832 445.05 340.177 339.333 305.794 344.493Z" fill="#FFC7F2"/>
<path d="M399.273 630.952C387.511 659.501 439.876 767.416 439.876 767.416C439.876 767.416 567.253 745.737 585.671 719.407C604.089 693.077 631.352 436.874 631.352 436.874C631.352 436.874 411.035 602.402 399.273 630.952Z" fill="#FFC7F2"/>
<path d="M615.035 426.785C615.035 426.785 793.49 657.437 795.158 663.426C796.826 669.414 753.712 696.367 747.655 693.121C741.599 689.874 615.035 426.785 615.035 426.785Z" fill="#FFC7F2"/>
</svg>
